<?xml version="1.0" standalone="no"?><!DOCTYPE svg PUBLIC "-//W3C//DTD SVG 1.1//EN" "http://www.w3.org/Graphics/SVG/1.1/DTD/svg11.dtd"><svg t="1548593925084" class="icon" style="" viewBox="0 0 1024 1024" version="1.1" xmlns="http://www.w3.org/2000/svg" p-id="2083" xmlns:xlink="http://www.w3.org/1999/xlink" width="200" height="200"><defs><style type="text/css"></style></defs><path d="M640 768m-32 0a32 32 0 1 0 64 0 32 32 0 1 0-64 0Z" p-id="2084" fill="#ffffff"></path><path d="M816 912H208a96 96 0 0 1-96-96V208a96 96 0 0 1 96-96h608a96 96 0 0 1 96 96v608a96 96 0 0 1-96 96zM208 176a32 32 0 0 0-32 32v608a32 32 0 0 0 32 32h608a32 32 0 0 0 32-32V208a32 32 0 0 0-32-32H208z" p-id="2085" fill="#ffffff"></path><path d="M520 680a32 32 0 0 1-22.64-54.64l138.72-138.72a96 96 0 0 1 136 0l122.72 122.72a32 32 0 0 1-45.28 45.28L726.64 531.92a32 32 0 0 0-45.28 0L542.64 670.64A32 32 0 0 1 520 680z" p-id="2086" fill="#ffffff"></path><path d="M176 880a32 32 0 0 1-22.64-54.64l226.72-226.72a96 96 0 0 1 136 0L589.28 672A32 32 0 1 1 544 717.28l-73.36-73.36a32 32 0 0 0-45.28 0l-226.72 226.72A32 32 0 0 1 176 880zM368 464a96 96 0 1 1 96-96 96 96 0 0 1-96 96z m0-128a32 32 0 1 0 32 32 32 32 0 0 0-32-32z" p-id="2087" fill="#ffffff"></path></svg>